<svg id="Layer_1" data-name="Layer 1" xmlns="http://www.w3.org/2000/svg" viewBox="0 0 57.2 57.88"><defs><style>.cls-1{fill:#00afaa;}</style></defs><title>Лендинг Ипотека 7,7</title><path class="cls-1" d="M28.6,57.88a0.5,0.5,0,0,1-.45-0.27L20.84,43.31H6.48A6.49,6.49,0,0,1,0,36.83V6.48A6.49,6.49,0,0,1,6.48,0H50.72A6.49,6.49,0,0,1,57.2,6.48V36.83a6.49,6.49,0,0,1-6.48,6.48H36.36L29,57.6A0.5,0.5,0,0,1,28.6,57.88ZM6.48,1A5.49,5.49,0,0,0,1,6.48V36.83a5.49,5.49,0,0,0,5.48,5.48H21.14a0.5,0.5,0,0,1,.45.27l7,13.7,7-13.7a0.5,0.5,0,0,1,.45-0.27H50.72a5.49,5.49,0,0,0,5.48-5.48V6.48A5.49,5.49,0,0,0,50.72,1H6.48Z"/><path class="cls-1" d="M37.85,35.33H19.6a0.5,0.5,0,0,1-.5-0.5V16a0.5,0.5,0,0,1,1,0V34.33H37.35V23.59a0.5,0.5,0,1,1,1,0V34.83A0.5,0.5,0,0,1,37.85,35.33Z"/><path class="cls-1" d="M32.09,29.27H25.35a0.5,0.5,0,0,1-.5-0.5V22a0.5,0.5,0,0,1,.5-0.5h6.74a0.5,0.5,0,0,1,.5.5v6.74A0.5,0.5,0,0,1,32.09,29.27Zm-6.24-1h5.74V22.53H25.85v5.74Z"/><path class="cls-1" d="M42.39,21.06a0.49,0.49,0,0,1-.33-0.13l-0.12-.11a0.5,0.5,0,0,1-.16-0.35,0.4,0.4,0,0,1,0,0L28.65,8.72h-0.1L15.43,20.43a0.4,0.4,0,0,1,0,0,0.5,0.5,0,0,1-.16.35l-0.12.11a0.5,0.5,0,0,1-.82-0.49,0.5,0.5,0,0,1,.15-0.5L28.14,7.74a1,1,0,0,1,.91,0L42.73,19.95a0.5,0.5,0,0,1,.15.5A0.5,0.5,0,0,1,42.39,21.06Z"/></svg>