<svg id="Layer_1" data-name="Layer 1" xmlns="http://www.w3.org/2000/svg" viewBox="0 0 54.66 61.69"><defs><style>.cls-1{fill:#00afaa;}</style></defs><title>Лендинг Ипотека 7,7</title><path class="cls-1" d="M19.5,35.73A0.56,0.56,0,0,1,19,35l2.42-7.62a0.56,0.56,0,0,1,.14-0.23l27-27a0.56,0.56,0,0,1,.8,0l5.2,5.2a0.56,0.56,0,0,1,0,.8l-27,27a0.56,0.56,0,0,1-.23.14L19.67,35.7Zm2.91-7.88-2,6.45,6.45-2L53.3,5.76l-4.4-4.4Z"/><path class="cls-1" d="M49.88,10.61a0.56,0.56,0,0,1-.4-0.17l-5.2-5.2a0.56,0.56,0,1,1,.8-0.8l5.2,5.2A0.56,0.56,0,0,1,49.88,10.61Z"/><path class="cls-1" d="M43.12,61.69H0.59A0.59,0.59,0,0,1,0,61.1V7.68A0.59,0.59,0,0,1,.59,7.09H41.7a0.59,0.59,0,1,1,0,1.18H1.18V60.51H42.53V19.11a0.59,0.59,0,1,1,1.18,0v42A0.59,0.59,0,0,1,43.12,61.69Z"/><path class="cls-1" d="M29.05,19.54H7.89a0.56,0.56,0,1,1,0-1.13H29.05A0.56,0.56,0,1,1,29.05,19.54Z"/><path class="cls-1" d="M21.91,27.74h-14a0.56,0.56,0,1,1,0-1.13h14A0.56,0.56,0,1,1,21.91,27.74Z"/><path class="cls-1" d="M19,35.94H7.89a0.56,0.56,0,1,1,0-1.13H19A0.56,0.56,0,1,1,19,35.94Z"/></svg>