<svg id="Layer_1" data-name="Layer 1" xmlns="http://www.w3.org/2000/svg" viewBox="0 0 290.55 120.19"><defs><style>.cls-1{fill:#00afaa;}.cls-2{fill:#00539b;}.cls-3{fill:#f39a00;}</style></defs><title>лого</title><path class="cls-1" d="M276.58,276.28h28.63A146.16,146.16,0,0,0,359,330.06v28.62a132.12,132.12,0,0,1-82.41-82.41" transform="translate(-276.58 -238.5)"/><path class="cls-2" d="M359,276.28v53.79a146.16,146.16,0,0,1-53.78-53.79H359Z" transform="translate(-276.58 -238.5)"/><path class="cls-1" d="M359,276.28H305.21a144.32,144.32,0,0,1-15.12-37.77h31.13A37.77,37.77,0,0,1,359,276.28" transform="translate(-276.58 -238.5)"/><path class="cls-3" d="M396.77,314.05v31.11A144.05,144.05,0,0,1,359,330.06V276.28a37.78,37.78,0,0,1,37.77,37.78" transform="translate(-276.58 -238.5)"/><path class="cls-1" d="M358.69,238.51a50.08,50.08,0,0,0,38.07,38.07V238.51H358.69Z" transform="translate(-276.58 -238.5)"/><path class="cls-2" d="M506.11,323.6l-15.89-22.21V323.6H478.3V276.12h11.91v20.76l14.08-20.76h13L502,297.6l18.05,26h-13.9ZM544,315.29c7.76,0,10.65-6.32,10.65-15.34,0-8.12-2.35-14.8-10.29-14.8-4.33,0-7.59,1.08-9.93,3.07-0.54,3.07-.37,7.94-0.37,11,0,9.75,3.07,16.07,9.93,16.07m-10.83-34.84a23,23,0,0,1,13.9-5.05c13.54,0,20,9.57,20,23.29,0,17.33-9.75,26.18-23.83,26.18-13.9,0-21.49-8.85-21.49-29.25,0-17,3.84-28.66,9.75-34.12,6.74-6.23,8.85-6.14,16.79-8.13,4.88-1.26,9.57-2,11.37-2.71l4.33,9.75c-2.35,1.45-6.68,2.35-15.34,4.15-9.93,2-14.45,5.41-15.53,15.89m-73.66,4.69V323.6H447.79V285.15H435.33v-9H472v9H459.53Z" transform="translate(-276.58 -238.5)"/></svg>