<svg id="Layer_1" data-name="Layer 1" xmlns="http://www.w3.org/2000/svg" viewBox="0 0 57.2 57.11"><defs><style>.cls-1{fill:#00afaa;}</style></defs><title>Лендинг Ипотека 7,7</title><path class="cls-1" d="M32.54,53.14a0.5,0.5,0,0,1-.07-1c2.94-.44,7-1.53,9.73-4.24A19.75,19.75,0,0,0,47.64,35V18.82A18.64,18.64,0,0,0,29.81,1H27.44A18.64,18.64,0,0,0,9.61,18.82V35a0.5,0.5,0,0,1-1,0V18.82A19.64,19.64,0,0,1,27.44,0h2.38A19.64,19.64,0,0,1,48.64,18.82V35A20.53,20.53,0,0,1,42.9,48.62c-2.9,2.9-7.19,4.06-10.28,4.52H32.54Z"/><path class="cls-1" d="M35.4,25.11a1.75,1.75,0,1,1,1.75-1.75A1.76,1.76,0,0,1,35.4,25.11Zm0-2.51a0.75,0.75,0,1,0,.75.75A0.75,0.75,0,0,0,35.4,22.6Z"/><path class="cls-1" d="M21.86,25.11a1.75,1.75,0,1,1,1.75-1.75A1.76,1.76,0,0,1,21.86,25.11Zm0-2.51a0.75,0.75,0,1,0,.75.75A0.75,0.75,0,0,0,21.86,22.6Z"/><path class="cls-1" d="M8.54,35.79h0A9.56,9.56,0,0,1,0,26.05a9.57,9.57,0,0,1,8.51-9.74,0.5,0.5,0,0,1,.08,1A8.56,8.56,0,0,0,1,26.05a8.56,8.56,0,0,0,7.58,8.74A0.5,0.5,0,0,1,8.54,35.79Z"/><path class="cls-1" d="M48.66,35.79a0.5,0.5,0,0,1,0-1,8.56,8.56,0,0,0,7.58-8.74,8.56,8.56,0,0,0-7.58-8.74,0.5,0.5,0,0,1,.08-1,9.57,9.57,0,0,1,8.51,9.74,9.56,9.56,0,0,1-8.51,9.73h0Z"/><path class="cls-1" d="M28.6,39.27c-3.84,0-7.11-2.11-8-5.14a0.5,0.5,0,1,1,1-.27c0.72,2.55,3.66,4.41,7,4.41s6.28-1.85,7-4.41a0.5,0.5,0,1,1,1,.27C35.71,37.15,32.44,39.27,28.6,39.27Z"/><path class="cls-1" d="M28.6,57.11A4.43,4.43,0,1,1,33,52.68,4.43,4.43,0,0,1,28.6,57.11Zm0-7.85A3.43,3.43,0,1,0,32,52.68,3.43,3.43,0,0,0,28.6,49.26Z"/><path class="cls-1" d="M8.77,17.79a0.5,0.5,0,0,1-.1-1,19.07,19.07,0,0,0,13-9.63A0.5,0.5,0,0,1,22,6.91a0.51,0.51,0,0,1,.43.15,19,19,0,0,0,13.74,5.82,19.12,19.12,0,0,0,9.41-2.47,0.5,0.5,0,0,1,.49.87,20.13,20.13,0,0,1-9.9,2.6,19.94,19.94,0,0,1-14-5.66A20.06,20.06,0,0,1,8.87,17.78H8.77Z"/></svg>