<svg id="Layer_1" data-name="Layer 1" xmlns="http://www.w3.org/2000/svg" viewBox="0 0 52.23 51.47"><defs><style>.cls-1{fill:#00afaa;}.cls-2{fill:#b7babc;}</style></defs><title>Лендинг Ипотека 7,7</title><path class="cls-1" d="M24.33,24.33L20.8,48.4A24.32,24.32,0,1,1,27.85.26,23.86,23.86,0,0,1,47.63,17.35Z"/><path class="cls-2" d="M50.51,21.39A23.33,23.33,0,0,1,34.59,49.46a22.15,22.15,0,0,1-6.51,1,23.29,23.29,0,0,1-2.57-.15l3.29-22.43,21.71-6.5m0.69-1.25-23.3,7L24.37,51.19a25.43,25.43,0,0,0,3.7.28,23.19,23.19,0,0,0,6.8-1A24.32,24.32,0,0,0,51.2,20.14h0Z"/></svg>